<?xml version="1.0" encoding="UTF-8"?>
<svg id="Calque_1" data-name="Calque 1" xmlns="http://www.w3.org/2000/svg" xmlns:xlink="http://www.w3.org/1999/xlink" viewBox="0 0 1000 1000">
  <defs>
    <style>
      .cls-1 {
        fill: #bf953f;
      }

      .cls-2 {
        fill: url(#Dégradé_sans_nom_81);
      }

      .cls-3 {
        fill: url(#Dégradé_sans_nom_159);
      }

      .cls-4 {
        fill: url(#Dégradé_sans_nom_81-2);
      }

      .cls-5 {
        fill: url(#Dégradé_sans_nom_81-3);
      }
    </style>
    <linearGradient id="Dégradé_sans_nom_159" data-name="Dégradé sans nom 159" x1="500" y1="970.13" x2="500" y2="29.87" gradientUnits="userSpaceOnUse">
      <stop offset="0" stop-color="#88560f"/>
      <stop offset="1" stop-color="#824c03"/>
    </linearGradient>
    <linearGradient id="Dégradé_sans_nom_81" data-name="Dégradé sans nom 81" x1="178.04" y1="157.41" x2="821.97" y2="842.58" gradientUnits="userSpaceOnUse">
      <stop offset="0" stop-color="#bf953f"/>
      <stop offset=".46" stop-color="#fcf6ba"/>
      <stop offset="1" stop-color="#aa771c"/>
    </linearGradient>
    <linearGradient id="Dégradé_sans_nom_81-2" data-name="Dégradé sans nom 81" x1="720.26" y1="720.26" x2="279.74" y2="279.74" xlink:href="#Dégradé_sans_nom_81"/>
    <linearGradient id="Dégradé_sans_nom_81-3" data-name="Dégradé sans nom 81" x1="269.13" y1="730.87" x2="730.87" y2="269.13" xlink:href="#Dégradé_sans_nom_81"/>
  </defs>
  <circle class="cls-3" cx="500" cy="500" r="470.13"/>
  <path class="cls-2" d="M500,29.87C240.35,29.87,29.87,240.35,29.87,500s210.48,470.13,470.13,470.13,470.13-210.48,470.13-470.13S759.65,29.87,500,29.87ZM234.74,807.91l-16.29-16.29-20.54,10.46,10.47-20.53-16.3-16.29,22.76,3.6,10.46-20.53,3.61,22.76,22.76,3.6-20.54,10.47,3.61,22.75ZM228.91,228.91l-3.61,22.76-10.46-20.54-22.76,3.61,16.3-16.29-10.47-20.54,20.54,10.47,16.29-16.3-3.61,22.76,20.54,10.46-22.76,3.61ZM372.76,885.99l-21.28-8.82-14.97,17.52,1.81-22.97-21.29-8.82,22.41-5.38,1.8-22.97,12.04,19.65,22.41-5.38-14.96,17.52,12.03,19.65ZM353.29,145.8l-12.04,19.65-1.81-22.97-22.41-5.38,21.29-8.82-1.81-22.97,14.97,17.52,21.29-8.81-12.04,19.64,14.96,17.52-22.4-5.38ZM507.12,905.3l-7.12,21.91-7.12-21.91h-23.04l18.64-13.55-7.12-21.91,18.64,13.54,18.64-13.54-7.12,21.91,18.64,13.55h-23.04ZM511.52,108.25l7.12,21.91-18.64-13.54-18.64,13.54,7.12-21.91-18.64-13.54h23.04l7.12-21.92,7.12,21.92h23.04l-18.64,13.54ZM663.49,894.69l-14.97-17.52-21.29,8.82,12.04-19.65-14.96-17.52,22.4,5.38,12.04-19.65,1.81,22.98,22.41,5.37-21.29,8.82,1.81,22.97ZM660.56,142.48l-1.81,22.97-12.04-19.65-22.4,5.38,14.96-17.52-12.04-19.65,21.29,8.82,14.96-17.52-1.8,22.97,21.29,8.82-22.41,5.38ZM802.08,802.08l-20.53-10.46-16.29,16.29,3.6-22.75-20.53-10.47,22.76-3.6,3.6-22.76,10.47,20.53,22.75-3.6-16.29,16.29,10.46,20.53ZM785.16,231.13l-10.47,20.54-3.6-22.76-22.76-3.61,20.53-10.46-3.6-22.76,16.29,16.3,20.53-10.47-10.46,20.54,16.29,16.29-22.75-3.61Z"/>
  <path class="cls-1" d="M500,15c65.48,0,129,12.82,188.78,38.11,57.75,24.43,109.62,59.4,154.17,103.95,44.55,44.55,79.52,96.42,103.95,154.17,25.29,59.78,38.11,123.3,38.11,188.78s-12.82,129-38.11,188.78c-24.43,57.75-59.4,109.62-103.95,154.17-44.55,44.55-96.42,79.52-154.17,103.95-59.78,25.29-123.3,38.11-188.78,38.11s-129-12.82-188.78-38.11c-57.75-24.43-109.62-59.4-154.17-103.95-44.55-44.55-79.52-96.42-103.95-154.17-25.29-59.78-38.11-123.3-38.11-188.78s12.82-129,38.11-188.78c24.43-57.75,59.4-109.62,103.95-154.17,44.55-44.55,96.42-79.52,154.17-103.95,59.78-25.29,123.3-38.11,188.78-38.11M500,0C223.86,0,0,223.86,0,500s223.86,500,500,500,500-223.86,500-500S776.14,0,500,0h0Z"/>
  <g>
    <path class="cls-4" d="M500,203.5c40.03,0,78.86,7.84,115.41,23.29,35.31,14.93,67.02,36.31,94.25,63.55,27.23,27.24,48.62,58.95,63.55,94.25,15.46,36.54,23.29,75.37,23.29,115.41s-7.84,78.86-23.29,115.41c-14.93,35.31-36.31,67.02-63.55,94.25-27.24,27.23-58.95,48.62-94.25,63.55-36.54,15.46-75.37,23.29-115.41,23.29s-78.86-7.84-115.41-23.29c-35.31-14.93-67.02-36.31-94.25-63.55-27.23-27.24-48.62-58.95-63.55-94.25-15.46-36.54-23.29-75.37-23.29-115.41s7.84-78.86,23.29-115.41c14.93-35.31,36.31-67.02,63.55-94.25,27.24-27.23,58.95-48.62,94.25-63.55,36.54-15.46,75.37-23.29,115.41-23.29M500,188.5c-172.04,0-311.5,139.46-311.5,311.5s139.46,311.5,311.5,311.5,311.5-139.46,311.5-311.5-139.46-311.5-311.5-311.5h0Z"/>
    <path class="cls-5" d="M500,188.5c172.04,0,311.5,139.46,311.5,311.5s-139.46,311.5-311.5,311.5-311.5-139.46-311.5-311.5S327.96,188.5,500,188.5M500,173.5c-44.07,0-86.83,8.63-127.09,25.66-38.88,16.45-73.8,39.99-103.78,69.97-29.98,29.98-53.52,64.9-69.97,103.78-17.03,40.26-25.66,83.02-25.66,127.09s8.63,86.83,25.66,127.09c16.45,38.88,39.99,73.8,69.97,103.78s64.9,53.52,103.78,69.97c40.26,17.03,83.02,25.66,127.09,25.66s86.83-8.63,127.09-25.66c38.88-16.45,73.8-39.99,103.78-69.97s53.52-64.9,69.97-103.78c17.03-40.26,25.66-83.02,25.66-127.09s-8.63-86.83-25.66-127.09c-16.45-38.88-39.99-73.8-69.97-103.78-29.98-29.98-64.9-53.52-103.78-69.97-40.26-17.03-83.02-25.66-127.09-25.66h0Z"/>
  </g>
</svg>