<?xml version="1.0" encoding="UTF-8"?>
<svg id="Calque_1" data-name="Calque 1" xmlns="http://www.w3.org/2000/svg" xmlns:xlink="http://www.w3.org/1999/xlink" viewBox="0 0 1000 1000">
  <defs>
    <style>
      .cls-1 {
        fill: #9b9b9b;
      }

      .cls-2 {
        fill: url(#Dégradé_sans_nom_35);
      }

      .cls-3 {
        fill: url(#Dégradé_sans_nom_36);
      }
    </style>
    <linearGradient id="Dégradé_sans_nom_35" data-name="Dégradé sans nom 35" x1="188.5" y1="500" x2="811.5" y2="500" gradientUnits="userSpaceOnUse">
      <stop offset="0" stop-color="#adadad"/>
      <stop offset="1" stop-color="#fff"/>
    </linearGradient>
    <linearGradient id="Dégradé_sans_nom_36" data-name="Dégradé sans nom 36" x1="173.5" y1="500" x2="826.5" y2="500" gradientUnits="userSpaceOnUse">
      <stop offset="0" stop-color="#fff"/>
      <stop offset="1" stop-color="#adadad"/>
    </linearGradient>
  </defs>
  <circle class="cls-1" cx="500" cy="500" r="470.13"/>
  <path class="cls-1" d="M500,15c65.48,0,129,12.82,188.78,38.11,57.75,24.43,109.62,59.4,154.17,103.95,44.55,44.55,79.52,96.42,103.95,154.17,25.29,59.78,38.11,123.3,38.11,188.78s-12.82,129-38.11,188.78c-24.43,57.75-59.4,109.62-103.95,154.17s-96.42,79.52-154.17,103.95c-59.78,25.29-123.3,38.11-188.78,38.11s-129-12.82-188.78-38.11c-57.75-24.43-109.62-59.4-154.17-103.95s-79.52-96.42-103.95-154.17c-25.29-59.78-38.11-123.3-38.11-188.78s12.82-129,38.11-188.78c24.43-57.75,59.4-109.62,103.95-154.17,44.55-44.55,96.42-79.52,154.17-103.95,59.78-25.29,123.3-38.11,188.78-38.11M500,0C223.86,0,0,223.86,0,500s223.86,500,500,500,500-223.86,500-500S776.14,0,500,0h0Z"/>
  <g>
    <path class="cls-2" d="M500,203.5c40.03,0,78.86,7.84,115.41,23.29,35.31,14.93,67.02,36.31,94.25,63.55,27.23,27.24,48.62,58.95,63.55,94.25,15.46,36.54,23.29,75.37,23.29,115.41s-7.84,78.86-23.29,115.41c-14.93,35.31-36.31,67.02-63.55,94.25-27.24,27.23-58.95,48.62-94.25,63.55-36.54,15.46-75.37,23.29-115.41,23.29s-78.86-7.84-115.41-23.29c-35.31-14.93-67.02-36.31-94.25-63.55-27.23-27.24-48.62-58.95-63.55-94.25-15.46-36.54-23.29-75.37-23.29-115.41s7.84-78.86,23.29-115.41c14.93-35.31,36.31-67.02,63.55-94.25,27.24-27.23,58.95-48.62,94.25-63.55,36.54-15.46,75.37-23.29,115.41-23.29M500,188.5c-172.04,0-311.5,139.46-311.5,311.5s139.46,311.5,311.5,311.5,311.5-139.46,311.5-311.5-139.46-311.5-311.5-311.5h0Z"/>
    <path class="cls-3" d="M500,188.5c172.04,0,311.5,139.46,311.5,311.5s-139.46,311.5-311.5,311.5-311.5-139.46-311.5-311.5S327.96,188.5,500,188.5M500,173.5c-44.07,0-86.83,8.63-127.09,25.66-38.88,16.45-73.8,39.99-103.78,69.97-29.98,29.98-53.52,64.9-69.97,103.78-17.03,40.26-25.66,83.02-25.66,127.09s8.63,86.83,25.66,127.09c16.45,38.88,39.99,73.8,69.97,103.78,29.98,29.98,64.9,53.52,103.78,69.97,40.26,17.03,83.02,25.66,127.09,25.66s86.83-8.63,127.09-25.66c38.88-16.45,73.8-39.99,103.78-69.97s53.52-64.9,69.97-103.78c17.03-40.26,25.66-83.02,25.66-127.09s-8.63-86.83-25.66-127.09c-16.45-38.88-39.99-73.8-69.97-103.78-29.98-29.98-64.9-53.52-103.78-69.97-40.26-17.03-83.02-25.66-127.09-25.66h0Z"/>
  </g>
</svg>